HIERARCHY
ROOT Hips
{
    OFFSET 0.000000 0.000000 0.000000
    CHANNELS 6 Xposition Yposition Zposition Zrotation Xrotation Yrotation
    JOINT Spine
    {
        OFFSET -0.000000 6.925600 0.000000
        CHANNELS 3 Zrotation Xrotation Yrotation
        JOINT Spine1
        {
            OFFSET -0.000000 16.343796 0.000000
            CHANNELS 3 Zrotation Xrotation Yrotation
            JOINT Neck
            {
                OFFSET -0.000000 18.032967 0.000000
                CHANNELS 3 Zrotation Xrotation Yrotation
                JOINT Head
                {
                    OFFSET -0.000000 13.091072 1.689171
                    CHANNELS 3 Zrotation Xrotation Yrotation
                    End Site
                    {
                        OFFSET -0.000000 16.891708 0.000000
                    }
                }
            }
            JOINT LeftShoulder
            {
                OFFSET 3.336773 14.146137 -0.012206
                CHANNELS 3 Zrotation Xrotation Yrotation
                JOINT LeftArm
                {
                    OFFSET 11.765518 0.000000 0.000000
                    CHANNELS 3 Zrotation Xrotation Yrotation
                    JOINT LeftForeArm
                    {
                        OFFSET 25.163450 0.000000 0.000000
                        CHANNELS 3 Zrotation Xrotation Yrotation
                        JOINT LeftHand
                        {
                            OFFSET 21.783554 0.000000 0.000000
                            CHANNELS 3 Zrotation Xrotation Yrotation
                            End Site
                            {
                                OFFSET 12.668781 0.000000 0.000000
                            }
                        }
                    }
                }
            }
            JOINT RightShoulder
            {
                OFFSET -3.409204 14.146137 -0.012206
                CHANNELS 3 Zrotation Xrotation Yrotation
                JOINT RightArm
                {
                    OFFSET -11.765518 0.000000 0.000000
                    CHANNELS 3 Zrotation Xrotation Yrotation
                    JOINT RightForeArm
                    {
                        OFFSET -25.163450 0.000000 0.000000
                        CHANNELS 3 Zrotation Xrotation Yrotation
                        JOINT RightHand
                        {
                            OFFSET -21.783554 0.000000 0.000000
                            CHANNELS 3 Zrotation Xrotation Yrotation
                            End Site
                            {
                                OFFSET -12.668781 0.000000 0.000000
                            }
                        }
                    }
                }
            }
        }
    }
    JOINT LeftUpLeg
    {
        OFFSET 8.445854 0.000000 0.000000
        CHANNELS 3 Zrotation Xrotation Yrotation
        JOINT LeftLeg
        {
            OFFSET -0.000000 -40.674755 0.000000
            CHANNELS 3 Zrotation Xrotation Yrotation
            JOINT LeftFoot
            {
                OFFSET -0.000000 -37.111794 0.000000
                CHANNELS 3 Zrotation Xrotation Yrotation
                JOINT LeftToeBase
                {
                    OFFSET -0.000000 -5.489805 12.668781
                    CHANNELS 3 Zrotation Xrotation Yrotation
                    End Site
                    {
                        OFFSET -0.000000 0.000000 3.378341
                    }
                }
            }
        }
    }
    JOINT RightUpLeg
    {
        OFFSET -8.445854 0.000000 0.000000
        CHANNELS 3 Zrotation Xrotation Yrotation
        JOINT RightLeg
        {
            OFFSET -0.000000 -40.674755 0.000000
            CHANNELS 3 Zrotation Xrotation Yrotation
            JOINT RightFoot
            {
                OFFSET -0.000000 -37.111794 0.000000
                CHANNELS 3 Zrotation Xrotation Yrotation
                JOINT RightToeBase
                {
                    OFFSET -0.000000 -5.489805 12.668781
                    CHANNELS 3 Zrotation Xrotation Yrotation
                    End Site
                    {
                        OFFSET -0.000000 0.000000 3.378341
                    }
                }
            }
        }
    }
}
MOTION
Frames:    8
Frame Time:    0.008333
0.067054    83.385216    16.657078    2.881489    -3.877528    11.465199    3.101813    -2.840554    2.599740    -5.779149    14.616041    1.580139    -2.288508    0.041214    -4.766333    -0.324160    -2.363266    -5.196194    -0.163692    7.732904    6.816256    -40.336281    45.683514    -40.938137    4.979544    -0.695702    -25.381660    -0.597674    0.444975    -3.561183    -1.875773    8.234652    -0.221663    60.365559    26.155396    37.471058    8.856010    15.448886    13.600788    -7.026309    13.588988    13.989141    2.850519    -3.207477    -1.276391    -0.121568    14.934993    -8.687488    -4.722991    -5.369789    13.680663    -3.905201    -3.903507    2.866331    2.266306    3.331338    -5.243670    -10.116460    13.043948    -13.903869    9.755581    -10.923997    0.858689    -0.739323    1.568499    -0.531373    
0.084958    83.384216    16.669352    2.870527    -3.871611    11.412754    3.088140    -3.030035    2.516911    -5.794621    14.871556    1.566181    -2.220173    -0.047688    -4.731750    -0.255253    -2.348844    -5.157002    -0.224258    7.642787    6.962455    -40.684132    45.537655    -40.649292    4.626564    -1.197722    -25.697405    -1.416855    -0.103850    -3.101213    -1.811051    8.159066    0.005585    60.359287    26.017776    37.420441    8.916047    15.412682    13.539774    -7.016578    13.551889    13.979677    2.844149    -3.197829    -1.272423    -0.117540    14.942739    -8.653069    -4.715427    -5.404588    13.689787    -3.900141    -3.898991    2.860729    2.259905    3.345968    -5.231668    -10.118233    13.007061    -13.893822    9.764625    -10.907621    0.881088    -0.736755    1.564945    -0.532960    
0.100616    83.405830    16.668514    2.937317    -3.805215    11.369873    2.968079    -3.095214    2.539874    -5.744913    14.862588    1.567552    -2.199315    -0.057703    -4.728259    -0.156665    -2.289936    -5.161008    -0.258884    7.667965    7.001028    -40.880177    45.426846    -40.526337    4.676069    -1.223945    -25.980639    -0.212303    -0.138033    -3.663072    -1.805070    8.191695    -0.042363    60.368767    26.028038    37.452900    8.948754    15.375159    13.489636    -7.005357    13.517542    13.945380    2.756540    -3.228829    -1.317630    -0.143701    14.911913    -8.575517    -4.706270    -5.374132    13.705044    -3.916221    -3.914233    2.876306    2.162615    3.299788    -5.212081    -10.111493    12.985357    -13.869974    9.771754    -10.907815    0.882372    -0.736962    1.560907    -0.525278    
0.117629    83.406494    16.678247    2.928682    -3.801979    11.308707    2.979582    -3.192131    2.570962    -5.778292    14.942922    1.585441    -2.103295    -0.021811    -4.742252    -0.050978    -2.252491    -5.174857    -0.207815    7.710701    6.988924    -41.136429    45.285870    -40.385586    4.903925    -1.021343    -25.869871    -1.252060    0.152164    -4.253766    -1.753110    8.213929    -0.032459    60.355991    25.998022    37.425972    8.860847    15.446250    13.572234    -6.762766    13.641484    13.611737    2.738694    -3.241771    -1.294217    -0.117685    14.971212    -8.538327    -4.696512    -5.437001    13.703869    -3.920918    -3.923294    2.869356    2.145531    3.320096    -5.185063    -10.093417    12.942628    -13.867103    9.766820    -10.877171    0.904614    -0.732350    1.545787    -0.512871    
0.134573    83.405899    16.687616    2.915099    -3.804989    11.237195    2.959153    -3.213326    2.588848    -5.730293    14.946413    1.585324    -2.084247    -0.038465    -4.729564    0.036374    -2.184165    -5.168448    -0.230073    7.710197    7.010127    -41.614033    45.058151    -39.998981    4.955372    -0.892220    -26.126711    -1.331376    0.310240    -4.455232    -1.750127    8.237059    -0.049609    60.359058    26.000137    37.433060    8.869600    15.394143    13.536384    -6.758599    13.591846    13.599830    2.749471    -3.212456    -1.325265    -0.150076    14.954320    -8.468354    -4.680517    -5.444399    13.727716    -3.923205    -3.926216    2.869692    2.137518    3.327680    -5.151772    -10.087179    12.930364    -13.841855    9.789433    -10.900652    0.925198    -0.743788    1.576105    -0.531099    
0.151145    83.406082    16.697252    2.901334    -3.805989    11.172137    2.959398    -3.093085    2.691038    -5.679022    14.704098    1.601382    -2.018384    0.039332    -4.791236    0.032394    -2.117511    -5.224363    -0.200623    7.839899    6.946307    -41.742828    45.000698    -39.944729    4.952008    -0.807131    -26.306440    -1.347658    0.407699    -4.835176    -1.776384    8.300401    -0.302070    60.354591    26.213287    37.421371    8.838401    15.299479    13.608567    -6.677114    13.509604    13.502619    2.747999    -3.205604    -1.326800    -0.152230    14.980099    -8.423990    -4.661876    -5.479842    13.746940    -3.929731    -3.924701    2.895227    2.127364    3.339911    -5.115218    -10.067747    12.908956    -13.820100    9.767345    -10.887371    0.907898    -0.737096    1.548305    -0.502858    
0.168439    83.405655    16.706161    2.883668    -3.810453    11.100377    2.948548    -3.111748    2.695815    -5.630881    14.708118    1.596902    -1.965428    0.011092    -4.779239    0.025297    -2.071388    -5.203618    -0.299406    8.467930    7.509900    -40.929707    44.727760    -41.260384    4.858376    -0.716319    -26.141359    -1.498967    0.479186    -5.096666    -1.790184    8.286417    -0.330594    60.358559    26.268629    37.415573    8.941721    15.074938    13.526062    -6.730415    13.260601    13.688844    2.749802    -3.199950    -1.349733    -0.156171    15.012505    -8.360450    -4.658084    -5.512290    13.767669    -3.931843    -3.927543    2.895199    2.135337    3.359061    -5.088104    -10.086823    12.868464    -13.654496    9.772735    -10.895582    0.788206    -0.743311    1.561218    -0.506551    
0.184582    83.404556    16.713200    2.863284    -3.815691    11.024464    2.923468    -3.131153    2.694441    -5.566539    14.706817    1.588174    -1.938647    0.001498    -4.778037    0.088819    -2.002384    -5.205704    -0.313313    8.489069    7.528243    -41.065670    44.657219    -41.181412    4.838450    -0.658070    -26.180214    -1.759293    0.545534    -5.065025    -1.784731    8.264299    -0.345895    60.332924    26.307615    37.405361    8.955535    15.013988    13.493410    -6.678746    13.208082    13.654952    2.756558    -3.197990    -1.355449    -0.160687    15.052154    -8.308699    -4.638723    -5.532781    13.786069    -3.943730    -3.939818    2.904219    2.113816    3.362056    -5.068319    -10.040210    12.869249    -13.756220    9.768399    -10.888321    0.944788    -0.738485    1.557119    -0.514041    
